<svg width="32" height="32" viewBox="0 0 32 32" fill="none" xmlns="http://www.w3.org/2000/svg">
<rect x="1" y="22" width="30" height="4" rx="1" fill="#988C68"/>
<path d="M4 26H8V30C8 30.5523 7.55228 31 7 31H5C4.44772 31 4 30.5523 4 30V26Z" fill="#636363"/>
<path d="M24 26H28V30C28 30.5523 27.5523 31 27 31H25C24.4477 31 24 30.5523 24 30V26Z" fill="#636363"/>
<rect x="12" y="1" width="7" height="21" fill="#B8D2FF"/>
<rect x="19" y="2" width="2" height="20" fill="#85A98F"/>
<rect x="5" y="5" width="2" height="17" fill="#FF0048"/>
<rect x="21" y="8.18311" width="2" height="15.2588" transform="rotate(-25 21 8.18311)" fill="#CD2355"/>
<rect x="10" y="7" width="2" height="15" fill="#FFC000"/>
<rect x="7" y="3" width="3" height="19" fill="#4C8EFF"/>
<rect x="12.5" y="19" width="6" height="1" fill="#74869C"/>
<rect x="7.83337" y="19.3333" width="1.33333" height="2" fill="#CCCFD4"/>
<rect x="5.66663" y="19.3333" width="0.666667" height="2" fill="#FFC49F"/>
<rect x="10.6666" y="19" width="0.666667" height="2" fill="#988C68"/>
<rect x="19.6666" y="19.3333" width="0.666667" height="2" fill="#CCCFD4"/>
<rect x="26.7871" y="19.0181" width="0.666667" height="2" transform="rotate(-25 26.7871 19.0181)" fill="#CCCFD4"/>
<rect x="8" y="5" width="1" height="7" fill="#CCCFD4"/>
<path d="M18.1607 10.9415C18.1302 10.6242 17.9876 10.3419 17.785 10.1931C17.751 10.0692 17.6916 9.95369 17.6106 9.85393C17.5841 9.58113 17.4511 9.32979 17.2404 9.15452C17.2748 9.12494 17.3038 9.08961 17.3261 9.05009C17.572 8.94026 17.7454 8.70963 17.7655 8.53812C17.8891 8.42308 17.965 8.26575 17.978 8.09737C17.9817 8.02916 17.9688 7.96107 17.9404 7.89896C17.9918 7.84993 18.0282 7.78739 18.0456 7.71855C18.063 7.6497 18.0606 7.57735 18.0387 7.50981C17.9653 7.29715 17.708 7.15911 17.3625 7.14447C17.2578 7.05553 17.1233 7.00949 16.9861 7.01555C16.9176 7.01587 16.8493 7.02427 16.7828 7.04057C16.7201 7.0124 16.6518 6.99858 16.583 7.00011C16.4492 7.00155 16.318 7.03732 16.2019 7.10401C16.1866 7.102 16.1713 7.10101 16.1559 7.10103C15.9844 7.10101 15.8129 7.2192 15.726 7.28965C15.6411 7.35834 15.5652 7.43743 15.5 7.52505C15.4349 7.43744 15.359 7.35836 15.2741 7.28966C15.1872 7.21922 15.0157 7.10104 14.8442 7.10103C14.8288 7.10101 14.8135 7.102 14.7982 7.10401C14.6821 7.03733 14.5509 7.00156 14.4171 7.00011C14.3483 6.99858 14.28 7.0124 14.2173 7.04057C14.1507 7.02427 14.0825 7.01587 14.014 7.01555C13.8768 7.00949 13.7423 7.05554 13.6375 7.14447C13.292 7.15911 13.0348 7.29715 12.9614 7.50983C12.9395 7.57736 12.937 7.64971 12.9544 7.71855C12.9718 7.7874 13.0083 7.84993 13.0597 7.89895C13.0312 7.96108 13.0183 8.02917 13.0221 8.09738C13.0351 8.26576 13.111 8.42309 13.2346 8.53811C13.2547 8.70965 13.4281 8.94026 13.674 9.05009C13.6963 9.08961 13.7253 9.12494 13.7597 9.15451C13.549 9.3298 13.416 9.58114 13.3895 9.85393C13.3085 9.95369 13.2491 10.0692 13.2151 10.1931C13.0125 10.3419 12.8699 10.6242 12.8393 10.9415C12.809 11.2569 12.8955 11.5514 13.0717 11.7379C13.1032 11.8965 13.1685 12.0465 13.2632 12.1777C13.2843 12.4257 13.3857 12.66 13.5521 12.8452C13.7184 13.0364 13.9417 13.1691 14.1891 13.2238C14.3367 13.3612 14.5098 13.4683 14.6986 13.5392C14.805 13.6415 14.9306 13.7219 15.0681 13.7757C15.2056 13.8294 15.3524 13.8555 15.5 13.8523C15.6477 13.8555 15.7944 13.8294 15.932 13.7756C16.0695 13.7219 16.1951 13.6415 16.3015 13.5392C16.4903 13.4683 16.6634 13.3612 16.811 13.2238C17.0584 13.1691 17.2817 13.0364 17.448 12.8452C17.6143 12.66 17.7157 12.4257 17.7369 12.1777C17.8315 12.0465 17.8969 11.8965 17.9284 11.7379C18.1045 11.5514 18.1911 11.2569 18.1607 10.9415Z" fill="black"/>
<path d="M16.1459 7.45961C16.1501 7.45839 16.1547 7.45823 16.159 7.45915C16.1634 7.46007 16.1674 7.46205 16.1709 7.4649C16.1743 7.46776 16.1769 7.47141 16.1786 7.47553C16.1803 7.47965 16.1809 7.48412 16.1805 7.48855C16.1718 7.57004 16.2211 7.55978 16.2328 7.5453C16.3611 7.38572 16.4971 7.34941 16.6188 7.36013C16.6236 7.36063 16.6283 7.36242 16.6322 7.36532C16.6361 7.36821 16.6392 7.37211 16.6411 7.3766C16.643 7.38109 16.6437 7.386 16.643 7.39084C16.6424 7.39567 16.6404 7.40024 16.6374 7.40408C16.5891 7.47581 16.6411 7.48945 16.6604 7.47656C16.8579 7.35306 17.0464 7.35284 17.1187 7.40471C17.1219 7.40714 17.1246 7.41027 17.1265 7.41386C17.1284 7.41745 17.1294 7.42142 17.1296 7.42547C17.1297 7.42953 17.129 7.43357 17.1274 7.4373C17.1258 7.44102 17.1234 7.44434 17.1203 7.44701C17.0472 7.50929 17.0881 7.54028 17.1139 7.53083C17.3145 7.46006 17.5913 7.52267 17.6879 7.60432C17.6909 7.60685 17.6934 7.61 17.6951 7.61356C17.6968 7.61711 17.6977 7.621 17.6977 7.62494C17.6978 7.62888 17.697 7.63279 17.6954 7.6364C17.6939 7.64001 17.6915 7.64324 17.6886 7.64586C17.6312 7.68978 17.5831 7.7447 17.5471 7.80742C17.5111 7.87014 17.4881 7.9394 17.4792 8.01115C17.4737 8.05918 17.5534 8.04908 17.5871 8.04042C17.591 8.03942 17.5951 8.03931 17.5991 8.04011C17.6031 8.04091 17.6069 8.04259 17.6101 8.04502C17.6134 8.04746 17.616 8.0506 17.6179 8.05421C17.6198 8.05781 17.6208 8.06179 17.621 8.06585C17.624 8.1813 17.5148 8.3082 17.3524 8.41672C17.3306 8.43125 17.3337 8.46612 17.3834 8.46741C17.3881 8.46743 17.3928 8.46869 17.3968 8.47107C17.4009 8.47346 17.4043 8.47688 17.4067 8.48099C17.409 8.4851 17.4102 8.48975 17.4102 8.49449C17.4102 8.49922 17.4089 8.50386 17.4065 8.50794C17.3486 8.61546 17.2698 8.7167 17.0014 8.78623C16.9959 8.78769 16.991 8.79084 16.9873 8.79525C16.9836 8.79965 16.9815 8.80509 16.981 8.81081C16.9806 8.81652 16.982 8.82222 16.985 8.82712C16.988 8.83201 16.9924 8.83585 16.9977 8.8381C17.0024 8.83942 17.0067 8.84206 17.01 8.84569C17.0133 8.84933 17.0156 8.85382 17.0164 8.85867C17.0173 8.86351 17.0169 8.86851 17.015 8.87309C17.0132 8.87767 17.0102 8.88165 17.0062 8.88458C16.7391 9.1141 16.0619 9.02362 15.9759 8.63732C15.9751 8.6335 15.9751 8.62955 15.9759 8.62573C15.9768 8.62192 15.9784 8.61833 15.9808 8.61522C16.2682 8.23135 16.6572 7.9354 17.1038 7.76075C17.1087 7.75889 17.1128 7.75528 17.1152 7.75061C17.1176 7.74594 17.1183 7.74054 17.117 7.73545C17.1156 7.73035 17.1125 7.72592 17.1081 7.723C17.1037 7.72008 17.0984 7.71888 17.0932 7.71963C16.8512 7.75481 16.6187 7.83797 16.4092 7.96423C16.1998 8.09049 16.0177 8.2573 15.8736 8.45489C15.8697 8.46017 15.864 8.46388 15.8576 8.46533C15.8512 8.46678 15.8445 8.46589 15.8387 8.46282C15.4046 8.2387 15.761 7.57692 16.1459 7.45961Z" fill="#46AF4B"/>
<path d="M13.5936 8.50794C13.5912 8.50386 13.59 8.49922 13.5899 8.49449C13.5899 8.48975 13.5911 8.4851 13.5935 8.48099C13.5958 8.47688 13.5992 8.47346 13.6033 8.47107C13.6074 8.46869 13.612 8.46743 13.6167 8.46741C13.6664 8.46612 13.6695 8.43125 13.6477 8.41672C13.4853 8.3082 13.3761 8.1813 13.3791 8.06585C13.3793 8.06179 13.3803 8.05781 13.3822 8.05421C13.3841 8.0506 13.3868 8.04746 13.39 8.04502C13.3933 8.04258 13.397 8.04091 13.401 8.04011C13.405 8.03931 13.4091 8.03942 13.4131 8.04042C13.4467 8.04908 13.5264 8.05918 13.5209 8.01115C13.5121 7.9394 13.489 7.87014 13.453 7.80742C13.4171 7.7447 13.369 7.68978 13.3115 7.64586C13.3086 7.64324 13.3063 7.64001 13.3047 7.6364C13.3031 7.63279 13.3023 7.62888 13.3024 7.62494C13.3024 7.621 13.3033 7.61712 13.305 7.61356C13.3067 7.61 13.3092 7.60685 13.3122 7.60433C13.4088 7.52267 13.6856 7.46006 13.8862 7.53083C13.912 7.54029 13.9529 7.50929 13.8798 7.44701C13.8768 7.44434 13.8743 7.44102 13.8727 7.4373C13.8711 7.43357 13.8704 7.42953 13.8705 7.42548C13.8707 7.42142 13.8717 7.41745 13.8736 7.41386C13.8755 7.41027 13.8782 7.40714 13.8814 7.40471C13.9538 7.35284 14.1422 7.35307 14.3397 7.47656C14.359 7.48945 14.4111 7.47581 14.3627 7.40408C14.3597 7.40024 14.3578 7.39567 14.3571 7.39084C14.3565 7.38601 14.3571 7.38109 14.359 7.3766C14.3609 7.37211 14.364 7.36822 14.3679 7.36532C14.3719 7.36242 14.3765 7.36063 14.3813 7.36013C14.503 7.34941 14.639 7.38572 14.7673 7.5453C14.779 7.55978 14.8283 7.57004 14.8196 7.48855C14.8192 7.48412 14.8198 7.47965 14.8215 7.47553C14.8232 7.47141 14.8258 7.46776 14.8293 7.4649C14.8327 7.46205 14.8367 7.46007 14.8411 7.45915C14.8454 7.45823 14.85 7.45839 14.8542 7.45961C15.2391 7.57692 15.5955 8.2387 15.1614 8.46282C15.1556 8.46589 15.1489 8.46678 15.1425 8.46533C15.1361 8.46388 15.1304 8.46017 15.1265 8.45489C14.9824 8.2573 14.8003 8.09049 14.5909 7.96422C14.3814 7.83796 14.1489 7.75481 13.9069 7.71963C13.9017 7.71888 13.8964 7.72008 13.892 7.723C13.8876 7.72591 13.8845 7.73035 13.8832 7.73544C13.8819 7.74054 13.8825 7.74594 13.8849 7.75061C13.8873 7.75528 13.8914 7.75889 13.8963 7.76074C14.3429 7.9354 14.7319 8.23134 15.0194 8.61522C15.0217 8.61833 15.0234 8.62192 15.0242 8.62573C15.025 8.62955 15.025 8.6335 15.0242 8.63732C14.9383 9.02362 14.261 9.1141 13.9939 8.88458C13.9899 8.88165 13.9869 8.87767 13.9851 8.87309C13.9833 8.86851 13.9828 8.86351 13.9837 8.85867C13.9846 8.85382 13.9868 8.84933 13.9901 8.84569C13.9934 8.84205 13.9977 8.83942 14.0024 8.8381C14.0077 8.83585 14.0122 8.83201 14.0151 8.82712C14.0181 8.82222 14.0195 8.81652 14.0191 8.81081C14.0187 8.8051 14.0165 8.79965 14.0128 8.79525C14.0092 8.79084 14.0042 8.78768 13.9987 8.78622C13.7303 8.7167 13.6516 8.61546 13.5936 8.50794Z" fill="#46AF4B"/>
<path d="M17.2102 9.68942C17.3215 9.98554 17.2348 10.1279 16.9708 9.97717C16.7577 9.85933 16.5694 9.70149 16.4162 9.51231C16.2173 9.27599 16.3465 9.17073 16.6599 9.22749C16.7799 9.25935 16.8914 9.31726 16.9865 9.39709C17.0817 9.47693 17.158 9.57673 17.2102 9.68942Z" fill="#CD2355"/>
<path d="M16.0259 9.356C16.4035 9.66986 15.9708 9.89205 15.5 9.89205C15.0291 9.89205 14.5965 9.66986 14.9741 9.356C15.1232 9.2362 15.3087 9.1709 15.5 9.1709C15.6912 9.1709 15.8768 9.2362 16.0259 9.356Z" fill="#CD2355"/>
<path d="M13.7897 9.68941C13.8419 9.57673 13.9183 9.47693 14.0134 9.39709C14.1085 9.31726 14.22 9.25935 14.3401 9.22749C14.6534 9.17073 14.7827 9.27599 14.5838 9.51231C14.4305 9.70149 14.2422 9.85933 14.0292 9.97717C13.7651 10.1279 13.6784 9.98554 13.7897 9.68941Z" fill="#CD2355"/>
<path d="M13.2435 11.3348C13.2002 11.2177 13.1834 11.0925 13.1942 10.9681C13.2051 10.8437 13.2434 10.7232 13.3063 10.6154C13.4458 10.378 13.5862 10.3875 13.642 10.5886C13.7128 10.8659 13.6871 11.1591 13.5693 11.4199C13.466 11.6252 13.3367 11.5558 13.2435 11.3348Z" fill="#CD2355"/>
<path d="M14.2496 12.872C14.079 12.8289 13.9262 12.7334 13.8127 12.5988C13.6993 12.4642 13.631 12.2974 13.6174 12.1219C13.6698 10.9032 15.4263 13.0797 14.2496 12.872Z" fill="#CD2355"/>
<path d="M14.2853 11.3544C13.9908 11.1844 13.9128 10.768 14.1112 10.4243C14.3096 10.0807 14.7092 9.93996 15.0038 10.11C15.2983 10.2801 15.3763 10.6965 15.1779 11.0402C14.9795 11.3838 14.5799 11.5245 14.2853 11.3544Z" fill="#CD2355"/>
<path d="M15.9915 13.3375C15.8484 13.4406 15.6764 13.496 15.5 13.496C15.3236 13.496 15.1517 13.4406 15.0085 13.3375C14.7166 13.136 15.0103 12.9041 15.5 12.9041C15.9898 12.9041 16.2834 13.136 15.9915 13.3375Z" fill="#CD2355"/>
<path d="M15.5 12.5988C15.8776 12.5988 16.1837 12.3364 16.1837 12.0128C16.1837 11.6891 15.8776 11.4268 15.5 11.4268C15.1224 11.4268 14.8163 11.6891 14.8163 12.0128C14.8163 12.3364 15.1224 12.5988 15.5 12.5988Z" fill="#CD2355"/>
<path d="M15.8222 11.0402C15.6238 10.6965 15.7017 10.2801 15.9963 10.11C16.2908 9.93996 16.6904 10.0807 16.8888 10.4243C17.0872 10.768 17.0093 11.1844 16.7147 11.3544C16.4202 11.5245 16.0206 11.3838 15.8222 11.0402Z" fill="#CD2355"/>
<path d="M16.7506 12.872C15.5739 13.0797 17.3304 10.9032 17.3828 12.122C17.3692 12.2974 17.3009 12.4642 17.1875 12.5988C17.074 12.7334 16.9212 12.8289 16.7506 12.872Z" fill="#CD2355"/>
<path d="M17.7565 11.3348C17.6633 11.5558 17.534 11.6252 17.4307 11.4199C17.3129 11.1591 17.2872 10.8659 17.358 10.5886C17.4138 10.3875 17.5542 10.378 17.6937 10.6154C17.7566 10.7232 17.7949 10.8437 17.8058 10.9681C17.8166 11.0925 17.7998 11.2177 17.7565 11.3348Z" fill="#CD2355"/>
</svg>
